<svg xmlns="http://www.w3.org/2000/svg" viewBox="0 0 109.52 64.12"><defs><style>.cls-1{fill:#010101;}</style></defs><g id="Layer_2" data-name="Layer 2"><g id="Layer_1-2" data-name="Layer 1"><path class="cls-1" d="M9.41,44.86a8,8,0,0,1-5.68-2.29c-2.9-2.82-4.26-8-3.54-13.63C.92,23.19,3.7,18.42,7.63,16.19c9.91-5.63,22.56-8.84,25.12-9.45L33,7.84c-2.5.6-15,3.77-24.82,9.33C4.56,19.23,2,23.68,1.31,29.08c-.66,5.17.6,10.14,3.21,12.68a6.76,6.76,0,0,0,4.88,2A10.1,10.1,0,0,0,12,43.37c6-1.63,9.7-3.76,11-6.33a5.88,5.88,0,0,0-.23-5.11l-.23-.54.56-.21A93.2,93.2,0,0,1,54.5,25.85a93.2,93.2,0,0,1,31.91,5.49l.55.2-.22.54a5.85,5.85,0,0,0-.14,5c1.26,2.56,5,4.68,10.94,6.3a10,10,0,0,0,2.57.37A6.82,6.82,0,0,0,104.79,42c2.67-2.42,4-7.31,3.47-12.49-.61-5.59-3.2-10.19-6.93-12.31C91.55,11.61,79,8.44,76.52,7.84l.25-1.1c2.56.61,15.2,3.81,25.12,9.45,4,2.3,6.84,7.22,7.49,13.17.61,5.61-.86,10.76-3.83,13.44a7.88,7.88,0,0,1-5.44,2.06,10.83,10.83,0,0,1-2.86-.4c-6.41-1.74-10.23-4-11.66-6.9a6.35,6.35,0,0,1-.24-4.94l.13-.42-.42-.15A92.51,92.51,0,0,0,54.5,27a92.71,92.71,0,0,0-30.1,4.91L24,32l.14.43A6.43,6.43,0,0,1,24,37.53c-1.42,2.92-5.24,5.19-11.68,6.93A10.94,10.94,0,0,1,9.41,44.86Z"/><path class="cls-1" d="M32.93,36.51l.94-.21,3.87,5.29-1.08.24-.91-1.27L33,41.17l-.29,1.54-1,.23Zm2.25,3.22-1.53-2.1-.48,2.55Z"/><path class="cls-1" d="M37.75,35.56l2.2-.32a3,3,0,0,1,3.56,2.48h0a3,3,0,0,1-2.7,3.41l-2.2.31Zm1.18.79.58,4,1.16-.17a1.94,1.94,0,0,0,1.76-2.28v0a2,2,0,0,0-2.34-1.71Z"/><path class="cls-1" d="M43.71,34.7l1.16-.09L47,39.05l1.43-4.72,1.13-.08-2,6.18-.93.07Z"/><path class="cls-1" d="M50.85,34.24l1,0,.17,6-1,0Z"/><path class="cls-1" d="M53.22,39.25l.64-.74a2.74,2.74,0,0,0,1.87.8c.64,0,1.06-.28,1.06-.73v0c0-.42-.22-.65-1.33-.93s-2-.71-2-1.81h0a1.82,1.82,0,0,1,2.06-1.7,3.29,3.29,0,0,1,2.15.78l-.57.79A2.7,2.7,0,0,0,55.54,35c-.61,0-1,.3-1,.69h0c0,.46.26.67,1.4,1s1.9.79,1.88,1.78v0c0,1.11-.9,1.76-2.15,1.74A3.62,3.62,0,0,1,53.22,39.25Z"/><path class="cls-1" d="M58.86,37.24h0a3.12,3.12,0,0,1,6.21.5h0a3.12,3.12,0,0,1-6.22-.5Zm5.12.43v0a2,2,0,1,0-4-.35v0a2,2,0,0,0,1.85,2.27A2,2,0,0,0,64,37.67Z"/><path class="cls-1" d="M66.83,35l2.63.41a2.38,2.38,0,0,1,1.61.85,1.81,1.81,0,0,1,.29,1.35v0a1.81,1.81,0,0,1-1.68,1.56l1.24,2.48-1.23-.19-1.13-2.28L67.27,39,67,41l-1-.16Zm2.1,3.32c.74.11,1.27-.2,1.36-.8v0c.09-.63-.31-1-1.07-1.16l-1.51-.24-.31,2Z"/><path class="cls-1" d="M73.94,39.91l-1.52-4,1.21.27,1.05,2.93,2.22-2.2,1.17.27-3.1,3-.51,2.32-1-.23Z"/><path class="cls-1" d="M21.86,52.13v0a3,3,0,0,1,1.76-4,3.1,3.1,0,0,1,2.51,0l-.35,1A2.37,2.37,0,0,0,24,49a2,2,0,0,0-1.07,2.67v0A2,2,0,0,0,25.48,53a2.31,2.31,0,0,0,1.32-1.33l.87.39A3.07,3.07,0,0,1,25.8,53.9,3,3,0,0,1,21.86,52.13Z"/><path class="cls-1" d="M27.63,49.92h0a3.07,3.07,0,0,1,2.13-3.85,3,3,0,0,1,3.84,2.07h0A3.06,3.06,0,0,1,31.48,52,3,3,0,0,1,27.63,49.92Zm4.92-1.45v0A2.05,2.05,0,0,0,30,47a2,2,0,0,0-1.33,2.59h0a2,2,0,1,0,3.87-1.12Z"/><path class="cls-1" d="M34.32,44.91l1-.2,4,3.4-.83-4,1-.2,1.2,5.84-.86.17-4.07-3.49.85,4.15-1,.21Z"/><path class="cls-1" d="M41.48,48.69l.53-.82a2.77,2.77,0,0,0,2,.53c.64-.08,1-.44,1-.88v0c0-.42-.32-.62-1.45-.73-1.3-.14-2.06-.42-2.2-1.51v0a1.83,1.83,0,0,1,1.8-2,3.33,3.33,0,0,1,2.24.47l-.45.86a2.72,2.72,0,0,0-1.69-.4c-.61.08-.92.43-.87.82v0c.06.46.36.62,1.53.75s2,.51,2.12,1.49v0c.14,1.1-.65,1.87-1.89,2A3.67,3.67,0,0,1,41.48,48.69Z"/><path class="cls-1" d="M47,46.35l-.19-3.43,1-.06L48,46.24c.06,1.11.66,1.66,1.6,1.61s1.46-.63,1.4-1.73l-.19-3.42,1-.06L52.08,46a2.38,2.38,0,0,1-2.41,2.81A2.34,2.34,0,0,1,47,46.35Z"/><path class="cls-1" d="M53.6,42.62l1,0-.08,5,3.14.05,0,.95-4.18-.07Z"/><path class="cls-1" d="M59.62,43.78l-1.89-.13.07-1,4.83.34-.07,1-1.89-.13-.34,5-1.06-.08Z"/><path class="cls-1" d="M65.29,43.31l1,.13L68,49.74,67,49.6l-.41-1.51-2.79-.38L63,49.05l-1.07-.14Zm1,3.81-.7-2.5-1.34,2.22Z"/><path class="cls-1" d="M70.18,44.09l.94.21L73.35,49l.89-4,1,.22L74,51l-.86-.19L70.81,46l-.91,4.14-1-.22Z"/><path class="cls-1" d="M75.9,48.47v0a3,3,0,0,1,3.85-2.05,3.11,3.11,0,0,1,2,1.57l-.87.54a2.39,2.39,0,0,0-1.38-1.19A2,2,0,0,0,77,48.76h0a2,2,0,0,0,1.26,2.6,2.33,2.33,0,0,0,1.86-.24l.45.85a3.11,3.11,0,0,1-2.63.31A3,3,0,0,1,75.9,48.47Z"/><path class="cls-1" d="M83.59,51.66l-.89-4.22,1.16.45.59,3L87,49.1l1.12.44L84.59,52l-.87,2.21-1-.38Z"/><path class="cls-1" d="M24.57,59.45l-1.72.79-.41-.88,4.4-2,.41.88L25.53,59l2.1,4.54-1,.44Z"/><path class="cls-1" d="M28.24,56.81l1-.38L31.37,62l-1,.38Z"/><path class="cls-1" d="M30.94,55.77l2.24-.71a2,2,0,0,1,2.76,1.22v0A2.11,2.11,0,0,1,34.28,59l-1.13.35.58,1.83-1,.31ZM34,58a1.13,1.13,0,0,0,.91-1.4h0c-.21-.67-.8-.87-1.55-.63l-1.16.36.65,2Z"/><path class="cls-1" d="M37.49,59.07l.45-.87a2.77,2.77,0,0,0,2,.35c.63-.14,1-.53.87-1h0c-.09-.42-.37-.59-1.51-.6-1.31,0-2.09-.23-2.33-1.3v0a1.82,1.82,0,0,1,1.61-2.13,3.33,3.33,0,0,1,2.28.26l-.38.89a2.71,2.71,0,0,0-1.71-.24c-.6.13-.88.52-.8.9v0c.1.45.41.59,1.59.6s2,.32,2.24,1.29v0c.24,1.09-.47,1.93-1.69,2.2A3.67,3.67,0,0,1,37.49,59.07Z"/><path class="cls-1" d="M49,57.34a2.6,2.6,0,0,1-1.74.95,1.76,1.76,0,0,1-2.1-1.51v0A1.78,1.78,0,0,1,46.25,55a2,2,0,0,1-.61-1.2h0a1.56,1.56,0,0,1,1.56-1.66,1.48,1.48,0,0,1,1.72,1.29h0a1.67,1.67,0,0,1-1.16,1.67l1.11.94a7.47,7.47,0,0,0,.53-1.21l.83.34a8.54,8.54,0,0,1-.68,1.43l1,.86-.73.63Zm-.65-.55-1.45-1.23a1.13,1.13,0,0,0-.7,1.06v0a.91.91,0,0,0,1.08.77A1.66,1.66,0,0,0,48.34,56.79ZM48,53.56v0a.64.64,0,0,0-.74-.6.68.68,0,0,0-.64.78h0a1.27,1.27,0,0,0,.53.84C47.74,54.29,48,54,48,53.56Z"/><path class="cls-1" d="M55.51,52.86l-1.89,0,0-1,4.84.13,0,1-1.89,0-.13,5-1.06,0Z"/><path class="cls-1" d="M59.9,52.07l2.64.3a2.41,2.41,0,0,1,1.64.78,1.8,1.8,0,0,1,.35,1.34v0a1.78,1.78,0,0,1-1.6,1.63l1.34,2.43L63,58.43,61.8,56.2l-1.3-.15-.24,2.06-1-.11Zm2.23,3.23c.74.08,1.26-.25,1.33-.85v0c.07-.64-.34-1-1.11-1.12l-1.52-.17-.23,2Z"/><path class="cls-1" d="M66.32,52.93l1,.19L66.28,59l-1-.19Z"/><path class="cls-1" d="M68.34,56.32h0a3,3,0,0,1,3.75-2.23,3.15,3.15,0,0,1,2,1.48l-.85.59A2.37,2.37,0,0,0,71.84,55a2,2,0,0,0-2.43,1.55v0a2,2,0,0,0,1.38,2.54,2.33,2.33,0,0,0,1.85-.32l.48.83a3.08,3.08,0,0,1-2.61.42A3,3,0,0,1,68.34,56.32Z"/><path class="cls-1" d="M75.75,55.23l1,.35-1,2.82,3.68-1.86,1.22.44-3.21,1.57,1.3,4.08-1.21-.44L76.5,59l-1.2.58-.58,1.63-1-.36Z"/><path class="cls-1" d="M79.26,61.94l.89-.41A2.8,2.8,0,0,0,81.53,63c.59.27,1.09.16,1.28-.24h0c.18-.39.06-.7-.84-1.4s-1.51-1.45-1-2.45h0a1.83,1.83,0,0,1,2.58-.72,3.36,3.36,0,0,1,1.65,1.59l-.84.48A2.69,2.69,0,0,0,83.09,59c-.55-.26-1-.12-1.18.23v0c-.2.42,0,.72.9,1.45s1.41,1.49,1,2.38v0a1.85,1.85,0,0,1-2.68.72A3.66,3.66,0,0,1,79.26,61.94Z"/><path class="cls-1" d="M12.21,21.59l-1.69,1.49L9.37,21.72l2.48-2.34,1.32-.64,5.28,10.94-1.89.91Z"/><path class="cls-1" d="M18.83,18.68,17,20l-1-1.44,2.65-2.15L20,15.91l4.44,11.3-2,.77Z"/><path class="cls-1" d="M25.67,16.27l-1.9,1.21L22.83,16l2.81-2L27,13.6,30.6,25.2l-2,.62Z"/><path class="cls-1" d="M38,13.31l-2,.95-.73-1.62,3-1.56,1.44-.24,2,12-2.07.34Z"/><path class="cls-1" d="M45.09,12.38l-2.1.8-.6-1.68,3.14-1.32L47,10.05l1.1,12.09L46,22.33Z"/><path class="cls-1" d="M52.29,12l-2.16.64-.48-1.71,3.24-1.09,1.47,0,.19,12.14-2.1,0Z"/><path class="cls-1" d="M64,10.23l1.94.3L71,19.75l1.26-8.25,2.07.32L72.51,23.74l-1.76-.27L65.48,14l-1.3,8.48-2.06-.31Z"/><path class="cls-1" d="M78.44,12.82,87,15.4l-.55,1.85-6.57-2-1,3.15,5.83,1.75L84.25,22l-5.83-1.75L77,25l-2-.61Z"/><path class="cls-1" d="M90,16.54l1.94.85-4.06,9.28,5.81,2.54L92.88,31l-7.75-3.39Z"/><path class="cls-1" d="M35.31,2.51l1-.24.56,2.44,2.8-.64-.56-2.44,1-.24,1.35,5.88-1,.23L39.93,5l-2.81.64.57,2.48-1,.23Z"/><path class="cls-1" d="M41.92,4.12v0A3.1,3.1,0,0,1,44.64.58a3.07,3.07,0,0,1,3.53,2.66v0a3.08,3.08,0,0,1-2.72,3.51A3.06,3.06,0,0,1,41.92,4.12Zm5.15-.7h0a2.07,2.07,0,0,0-2.32-1.86A2,2,0,0,0,43,3.93V4A2.07,2.07,0,0,0,45.34,5.8,2,2,0,0,0,47.07,3.42Z"/><path class="cls-1" d="M50.2,1.14l-1.91.1,0-1L53.13,0l0,1-1.91.1.27,5.05-1.07,0Z"/><path class="cls-1" d="M54.39,0l1.06,0-.1,5.06,3.17.06,0,1L54.27,6Z"/><path class="cls-1" d="M59.87.19l1.05.08-.44,6-1-.07Z"/><path class="cls-1" d="M62.47.37l1,.13,2.64,4.57L66.64.94l1,.14-.81,6L66,6.93,63.27,2.24l-.58,4.24-1-.14Z"/><path class="cls-1" d="M69.28,1.37l1,.24-.67,3,3.47-2.33,1.28.29-3,2,1.81,3.93L71.9,8.16,70.5,5.05l-1.13.74L69,7.49l-1-.23Z"/></g></g></svg>